<?xml version="1.0" encoding="UTF-8" ?>
<!DOCTYPE svg PUBLIC "-//W3C//DTD SVG 1.1//EN" "http://www.w3.org/Graphics/SVG/1.1/DTD/svg11.dtd">
<svg width="379pt" height="379pt" viewBox="0 0 379 379" version="1.1" xmlns="http://www.w3.org/2000/svg">
<g id="#ffffffff">
<path fill="#ffffff" opacity="1.00" d=" M 152.97 21.13 C 178.65 20.92 204.34 20.90 230.01 21.14 C 226.16 24.62 221.73 27.46 218.28 31.37 C 214.75 35.33 215.30 41.04 215.00 45.97 C 215.12 65.97 214.63 85.98 215.52 105.96 C 215.66 110.86 216.97 115.60 218.64 120.17 C 240.65 183.57 263.63 246.62 285.92 309.92 C 289.47 318.77 291.28 328.41 290.75 337.94 C 288.74 345.63 283.21 352.35 276.31 356.24 C 272.60 358.46 268.16 358.36 263.99 358.33 C 231.00 358.97 198.00 358.51 165.00 358.65 C 148.32 358.85 131.66 358.10 114.98 358.26 C 107.84 358.42 101.45 354.37 97.04 349.02 C 92.89 344.01 88.96 337.95 89.38 331.16 C 89.86 325.19 91.96 319.51 93.87 313.88 C 117.09 248.38 140.98 183.12 163.66 117.44 C 167.37 108.09 166.43 97.84 166.97 88.01 C 166.82 71.37 167.67 54.66 165.88 38.08 C 165.23 30.32 157.99 26.09 152.97 21.13 M 194.43 61.31 C 191.49 62.20 190.63 66.19 192.48 68.48 C 194.41 71.40 199.44 70.85 200.60 67.52 C 202.74 63.91 198.05 59.22 194.43 61.31 M 182.33 85.13 C 176.86 86.79 175.16 94.67 179.51 98.41 C 183.63 102.42 191.41 100.25 192.61 94.55 C 194.47 88.72 187.97 82.93 182.33 85.13 M 197.33 104.26 C 192.76 105.67 191.28 112.12 194.59 115.49 C 197.79 119.37 205.15 117.93 206.26 112.89 C 208.17 107.69 202.50 102.16 197.33 104.26 M 188.44 136.45 C 182.56 138.25 181.41 147.16 186.65 150.39 C 191.19 153.80 198.56 150.61 199.02 144.90 C 200.00 139.26 193.75 134.18 188.44 136.45 M 165.48 166.48 C 161.32 168.39 158.02 172.38 157.47 176.99 C 156.37 183.79 161.59 190.51 168.22 191.78 C 176.77 193.65 185.50 184.92 183.69 176.37 C 182.35 168.41 172.94 163.05 165.48 166.48 M 219.40 190.31 C 214.70 192.39 213.45 199.28 217.08 202.90 C 221.01 207.36 229.46 205.31 230.55 199.31 C 232.38 193.09 225.14 187.35 219.40 190.31 M 188.38 201.33 C 180.28 202.98 177.86 214.72 184.37 219.63 C 190.15 224.86 200.83 220.87 201.39 212.99 C 202.87 205.82 195.26 199.24 188.38 201.33 M 170.58 234.70 C 164.87 236.55 163.82 245.03 168.63 248.44 C 173.12 252.18 181.03 248.90 181.20 242.97 C 182.24 237.31 175.75 232.46 170.58 234.70 M 140.51 258.43 C 140.13 259.98 140.03 261.61 140.91 263.02 C 144.61 270.15 148.78 277.03 152.44 284.19 C 145.95 288.31 139.28 292.31 133.86 297.85 C 120.22 310.81 111.70 329.35 111.93 348.27 C 165.31 348.41 218.70 348.40 272.08 348.27 C 271.72 337.92 269.54 327.55 264.89 318.25 C 257.80 303.71 245.62 291.96 231.36 284.48 C 235.03 276.90 239.57 269.79 243.27 262.23 C 244.14 260.86 243.23 259.41 242.82 258.08 C 241.38 258.31 239.59 258.40 238.94 259.97 C 234.69 267.24 230.89 274.77 226.70 282.08 C 219.15 279.24 211.44 276.67 203.38 275.79 C 187.77 273.47 171.73 276.12 157.19 282.07 C 153.05 275.03 149.39 267.72 145.36 260.62 C 144.56 258.50 142.51 258.14 140.51 258.43 Z" />
<path fill="#ffffff" opacity="1.00" d=" M 153.40 306.37 C 157.53 304.69 162.74 308.49 162.10 313.00 C 162.41 318.46 155.02 321.32 151.15 317.84 C 147.28 314.75 148.59 307.75 153.40 306.37 Z" />
<path fill="#ffffff" opacity="1.00" d=" M 226.40 306.32 C 231.13 304.66 236.51 309.83 234.76 314.63 C 233.62 319.38 226.78 321.04 223.60 317.38 C 220.06 314.16 221.78 307.48 226.40 306.32 Z" />
</g>
<g id="#b2b1b1ff">
<path fill="#b2b1b1" opacity="1.00" d=" M 145.39 12.30 C 149.16 11.26 153.13 11.68 157.00 11.62 C 182.35 11.70 207.70 11.62 233.05 11.65 C 235.38 11.90 238.92 11.56 239.51 14.55 C 240.41 18.17 240.34 22.04 239.67 25.69 C 235.94 30.63 229.60 32.86 225.88 37.85 C 224.90 39.33 225.11 41.23 224.96 42.92 C 224.62 58.61 224.55 74.31 224.99 90.00 C 225.14 98.50 224.14 107.35 227.42 115.43 C 249.40 178.83 272.39 241.89 294.69 305.18 C 298.56 314.66 300.58 324.76 300.58 335.00 C 301.06 343.40 296.38 351.00 290.98 357.02 C 285.06 363.29 276.97 368.42 268.04 368.05 C 254.36 367.75 240.69 368.60 227.00 368.35 C 203.33 368.33 179.67 368.38 156.00 368.33 C 141.99 367.72 127.96 368.12 113.94 368.01 C 103.37 367.96 93.89 361.54 87.75 353.29 C 83.47 347.36 79.51 340.57 79.62 333.03 C 79.53 323.70 83.06 314.90 86.12 306.25 C 109.15 241.55 132.65 177.01 155.13 112.11 C 157.79 105.03 156.83 97.37 157.06 89.98 C 157.45 78.33 157.35 66.66 157.04 55.00 C 156.87 49.43 157.38 43.69 155.81 38.27 C 153.24 32.65 146.74 30.50 143.24 25.67 C 142.41 21.45 141.29 15.04 145.39 12.30 M 152.97 21.13 C 157.99 26.09 165.23 30.32 165.88 38.08 C 167.67 54.66 166.82 71.37 166.97 88.01 C 166.43 97.84 167.37 108.09 163.66 117.44 C 140.98 183.12 117.09 248.38 93.87 313.88 C 91.96 319.51 89.86 325.19 89.38 331.16 C 88.96 337.95 92.89 344.01 97.04 349.02 C 101.45 354.37 107.84 358.42 114.98 358.26 C 131.66 358.10 148.32 358.85 165.00 358.65 C 198.00 358.51 231.00 358.97 263.99 358.33 C 268.16 358.36 272.60 358.46 276.31 356.24 C 283.21 352.35 288.74 345.63 290.75 337.94 C 291.28 328.41 289.47 318.77 285.92 309.92 C 263.63 246.62 240.65 183.57 218.64 120.17 C 216.97 115.60 215.66 110.86 215.52 105.96 C 214.63 85.98 215.12 65.97 215.00 45.97 C 215.30 41.04 214.75 35.33 218.28 31.37 C 221.73 27.46 226.16 24.62 230.01 21.14 C 204.34 20.90 178.65 20.92 152.97 21.13 Z" />
</g>
<g id="#99cf20ff">
<path fill="#99cf20" opacity="1.00" d=" M 194.43 61.31 C 198.05 59.22 202.74 63.91 200.60 67.52 C 199.44 70.85 194.41 71.40 192.48 68.48 C 190.63 66.19 191.49 62.20 194.43 61.31 Z" />
<path fill="#99cf20" opacity="1.00" d=" M 182.33 85.13 C 187.97 82.93 194.47 88.72 192.61 94.55 C 191.41 100.25 183.63 102.42 179.51 98.41 C 175.16 94.67 176.86 86.79 182.33 85.13 Z" />
<path fill="#99cf20" opacity="1.00" d=" M 197.33 104.26 C 202.50 102.16 208.17 107.69 206.26 112.89 C 205.15 117.93 197.79 119.37 194.59 115.49 C 191.28 112.12 192.76 105.67 197.33 104.26 Z" />
<path fill="#99cf20" opacity="1.00" d=" M 188.44 136.45 C 193.75 134.18 200.00 139.26 199.02 144.90 C 198.56 150.61 191.19 153.80 186.65 150.39 C 181.41 147.16 182.56 138.25 188.44 136.45 Z" />
<path fill="#99cf20" opacity="1.00" d=" M 165.48 166.48 C 172.94 163.05 182.35 168.41 183.69 176.37 C 185.50 184.92 176.77 193.65 168.22 191.78 C 161.59 190.51 156.37 183.79 157.47 176.99 C 158.02 172.38 161.32 168.39 165.48 166.48 Z" />
<path fill="#99cf20" opacity="1.00" d=" M 219.40 190.31 C 225.14 187.35 232.38 193.09 230.55 199.31 C 229.46 205.31 221.01 207.36 217.08 202.90 C 213.45 199.28 214.70 192.39 219.40 190.31 Z" />
<path fill="#99cf20" opacity="1.00" d=" M 188.38 201.33 C 195.26 199.24 202.87 205.82 201.39 212.99 C 200.83 220.87 190.15 224.86 184.37 219.63 C 177.86 214.72 180.28 202.98 188.38 201.33 Z" />
<path fill="#99cf20" opacity="1.00" d=" M 170.58 234.70 C 175.75 232.46 182.24 237.31 181.20 242.97 C 181.03 248.90 173.12 252.18 168.63 248.44 C 163.82 245.03 164.87 236.55 170.58 234.70 Z" />
<path fill="#99cf20" opacity="1.00" d=" M 140.51 258.43 C 142.51 258.14 144.56 258.50 145.36 260.62 C 149.39 267.72 153.05 275.03 157.19 282.07 C 171.73 276.12 187.77 273.47 203.38 275.79 C 211.44 276.67 219.15 279.24 226.70 282.08 C 230.89 274.77 234.69 267.24 238.94 259.97 C 239.59 258.40 241.38 258.31 242.82 258.08 C 243.23 259.41 244.14 260.86 243.27 262.23 C 239.57 269.79 235.03 276.90 231.36 284.48 C 245.62 291.96 257.80 303.71 264.89 318.25 C 269.54 327.55 271.72 337.92 272.08 348.27 C 218.70 348.40 165.31 348.41 111.93 348.27 C 111.70 329.35 120.22 310.81 133.86 297.85 C 139.28 292.31 145.95 288.31 152.44 284.19 C 148.78 277.03 144.61 270.15 140.91 263.02 C 140.03 261.61 140.13 259.98 140.51 258.43 M 153.40 306.37 C 148.59 307.75 147.28 314.75 151.15 317.84 C 155.02 321.32 162.41 318.46 162.10 313.00 C 162.74 308.49 157.53 304.69 153.40 306.37 M 226.40 306.32 C 221.78 307.48 220.06 314.16 223.60 317.38 C 226.78 321.04 233.62 319.38 234.76 314.63 C 236.51 309.83 231.13 304.66 226.40 306.32 Z" />
</g>
</svg>
